# Blender v3.2.2 OBJ File: ''
# www.blender.org
mtllib sphere_12_6.mtl
o çƒ_çƒ.001
v 0.000000 0.866025 -0.500000
v 0.000000 0.500000 -0.866025
v 0.000000 -0.000000 -1.000000
v 0.000000 -0.866025 -0.500000
v 0.250000 0.866025 -0.433013
v 0.433013 0.500000 -0.750000
v 0.500000 -0.000000 -0.866025
v 0.433013 -0.500000 -0.750000
v 0.250000 -0.866025 -0.433013
v 0.433013 0.866025 -0.250000
v 0.750000 0.500000 -0.433013
v 0.866026 -0.000000 -0.500000
v 0.750000 -0.500000 -0.433013
v 0.433013 -0.866025 -0.250000
v 0.500000 0.866025 0.000000
v 0.866026 0.500000 0.000000
v 1.000000 -0.000000 0.000000
v 0.866026 -0.500000 0.000000
v 0.500000 -0.866025 0.000000
v 0.433013 0.866025 0.250000
v 0.750000 0.500000 0.433013
v 0.866025 -0.000000 0.500000
v 0.750000 -0.500000 0.433013
v 0.433013 -0.866025 0.250000
v 0.250000 0.866025 0.433013
v 0.433013 0.500000 0.750000
v 0.500000 -0.000000 0.866025
v 0.433013 -0.500000 0.750000
v 0.250000 -0.866025 0.433013
v -0.000000 1.000000 0.000000
v 0.000000 0.866025 0.500000
v -0.000000 0.500000 0.866026
v 0.000000 -0.000000 1.000000
v -0.000000 -0.500000 0.866026
v -0.000000 -0.866025 0.500000
v -0.250000 0.866025 0.433013
v -0.433013 0.500000 0.750000
v -0.500000 -0.000000 0.866025
v -0.433013 -0.500000 0.750000
v -0.250000 -0.866025 0.433013
v 0.000000 -1.000000 0.000000
v -0.433013 0.866025 0.250000
v -0.750000 0.500000 0.433013
v -0.866025 -0.000000 0.500000
v -0.750000 -0.500000 0.433013
v -0.433013 -0.866025 0.250000
v -0.500000 0.866025 0.000000
v -0.866025 0.500000 0.000000
v -1.000000 -0.000000 0.000000
v -0.866025 -0.500000 0.000000
v -0.500000 -0.866025 0.000000
v -0.433013 0.866025 -0.250000
v -0.750000 0.500000 -0.433013
v -0.866025 -0.000000 -0.500000
v -0.750000 -0.500000 -0.433013
v -0.433013 -0.866025 -0.250000
v -0.250000 0.866025 -0.433013
v -0.433013 0.500000 -0.750000
v -0.500000 -0.000000 -0.866025
v -0.433013 -0.500000 -0.750000
v -0.250000 -0.866025 -0.433013
v 0.000000 -0.500000 -0.866025
vt 0.750000 0.166667
vt 0.750000 0.333333
vt 0.666667 0.333333
vt 0.666667 0.166667
vt 0.750000 0.500000
vt 0.750000 0.666667
vt 0.666667 0.666667
vt 0.666667 0.500000
vt 0.750000 0.833333
vt 0.708333 1.000000
vt 0.666667 0.833333
vt 0.708333 0.000000
vt 0.625000 1.000000
vt 0.583333 0.833333
vt 0.625000 0.000000
vt 0.583333 0.166667
vt 0.583333 0.500000
vt 0.583333 0.333333
vt 0.583333 0.666667
vt 0.541667 0.000000
vt 0.500000 0.166667
vt 0.500000 0.500000
vt 0.500000 0.333333
vt 0.500000 0.833333
vt 0.500000 0.666667
vt 0.541667 1.000000
vt 0.458333 0.000000
vt 0.416667 0.166667
vt 0.416667 0.500000
vt 0.416667 0.333333
vt 0.416667 0.833333
vt 0.416667 0.666667
vt 0.458333 1.000000
vt 0.375000 0.000000
vt 0.333333 0.166667
vt 0.333333 0.500000
vt 0.333333 0.333333
vt 0.333333 0.833333
vt 0.333333 0.666667
vt 0.375000 1.000000
vt 0.250000 0.500000
vt 0.250000 0.333333
vt 0.250000 0.833333
vt 0.250000 0.666667
vt 0.250000 0.166667
vt 0.291667 1.000000
vt 0.291667 0.000000
vt 0.166667 0.833333
vt 0.166667 0.666667
vt 0.166667 0.333333
vt 0.166667 0.166667
vt 0.166667 0.500000
vt 0.208333 1.000000
vt 0.208333 0.000000
vt 0.083333 0.333333
vt 0.083333 0.166667
vt 0.083333 0.666667
vt 0.083333 0.500000
vt 0.125000 1.000000
vt 0.083333 0.833333
vt 0.125000 0.000000
vt 0.000000 0.333333
vt 0.000000 0.166667
vt 0.000000 0.666667
vt 0.000000 0.500000
vt 0.041667 1.000000
vt 0.000000 0.833333
vt 0.041667 0.000000
vt 1.000000 0.166667
vt 1.000000 0.333333
vt 0.916667 0.333333
vt 0.916667 0.166667
vt 1.000000 0.500000
vt 1.000000 0.666667
vt 0.916667 0.666667
vt 0.916667 0.500000
vt 1.000000 0.833333
vt 0.958333 1.000000
vt 0.916667 0.833333
vt 0.958333 0.000000
vt 0.833333 0.333333
vt 0.833333 0.166667
vt 0.833333 0.666667
vt 0.833333 0.500000
vt 0.875000 1.000000
vt 0.833333 0.833333
vt 0.875000 0.000000
vt 0.791667 1.000000
vt 0.791667 0.000000
vn 0.1862 -0.6947 -0.6947
vn 0.2506 0.2506 -0.9351
vn 0.0692 0.9636 -0.2582
vn 0.0692 -0.9636 -0.2582
vn 0.2506 -0.2506 -0.9351
vn 0.1862 0.6947 -0.6947
vn 0.1890 0.9636 -0.1890
vn 0.1890 -0.9636 -0.1890
vn 0.6846 -0.2506 -0.6846
vn 0.5086 0.6947 -0.5086
vn 0.5086 -0.6947 -0.5086
vn 0.6846 0.2506 -0.6846
vn 0.2582 -0.9636 -0.0692
vn 0.9351 -0.2506 -0.2506
vn 0.6947 0.6947 -0.1862
vn 0.6947 -0.6947 -0.1862
vn 0.9351 0.2506 -0.2506
vn 0.2582 0.9636 -0.0692
vn 0.2582 -0.9636 0.0692
vn 0.9351 -0.2506 0.2506
vn 0.6947 0.6947 0.1862
vn 0.6947 -0.6947 0.1862
vn 0.9351 0.2506 0.2506
vn 0.2582 0.9636 0.0692
vn 0.1890 -0.9636 0.1890
vn 0.6846 -0.2506 0.6846
vn 0.5086 0.6947 0.5086
vn 0.5086 -0.6947 0.5086
vn 0.6846 0.2506 0.6846
vn 0.1890 0.9636 0.1890
vn 0.2506 -0.2506 0.9351
vn 0.1862 0.6947 0.6947
vn 0.1862 -0.6947 0.6947
vn 0.2506 0.2506 0.9351
vn 0.0692 0.9636 0.2582
vn 0.0692 -0.9636 0.2582
vn -0.1862 0.6947 0.6947
vn -0.1862 -0.6947 0.6947
vn -0.2506 0.2506 0.9351
vn -0.0692 0.9636 0.2582
vn -0.0692 -0.9636 0.2582
vn -0.2506 -0.2506 0.9351
vn -0.5086 -0.6947 0.5086
vn -0.6846 0.2506 0.6846
vn -0.1890 0.9636 0.1890
vn -0.1890 -0.9636 0.1890
vn -0.6846 -0.2506 0.6846
vn -0.5086 0.6947 0.5086
vn -0.6947 -0.6947 0.1862
vn -0.9351 0.2506 0.2506
vn -0.2582 0.9636 0.0692
vn -0.2582 -0.9636 0.0692
vn -0.9351 -0.2506 0.2506
vn -0.6947 0.6947 0.1862
vn -0.6947 -0.6947 -0.1862
vn -0.9351 0.2506 -0.2506
vn -0.2582 0.9636 -0.0692
vn -0.2582 -0.9636 -0.0692
vn -0.9351 -0.2506 -0.2506
vn -0.6947 0.6947 -0.1862
vn -0.5086 -0.6947 -0.5086
vn -0.6846 0.2506 -0.6846
vn -0.1890 0.9636 -0.1890
vn -0.1890 -0.9636 -0.1890
vn -0.6846 -0.2506 -0.6846
vn -0.5086 0.6947 -0.5086
vn -0.2506 0.2506 -0.9351
vn -0.0692 0.9636 -0.2582
vn -0.0692 -0.9636 -0.2582
vn -0.2506 -0.2506 -0.9351
vn -0.1862 0.6947 -0.6947
vn -0.1862 -0.6947 -0.6947
usemtl None
s off
f 4/1/1 62/2/1 8/3/1 9/4/1
f 3/5/2 2/6/2 6/7/2 7/8/2
f 1/9/3 30/10/3 5/11/3
f 41/12/4 4/1/4 9/4/4
f 62/2/5 3/5/5 7/8/5 8/3/5
f 2/6/6 1/9/6 5/11/6 6/7/6
f 5/11/7 30/13/7 10/14/7
f 41/15/8 9/4/8 14/16/8
f 8/3/9 7/8/9 12/17/9 13/18/9
f 6/7/10 5/11/10 10/14/10 11/19/10
f 9/4/11 8/3/11 13/18/11 14/16/11
f 7/8/12 6/7/12 11/19/12 12/17/12
f 41/20/13 14/16/13 19/21/13
f 13/18/14 12/17/14 17/22/14 18/23/14
f 11/19/15 10/14/15 15/24/15 16/25/15
f 14/16/16 13/18/16 18/23/16 19/21/16
f 12/17/17 11/19/17 16/25/17 17/22/17
f 10/14/18 30/26/18 15/24/18
f 41/27/19 19/21/19 24/28/19
f 18/23/20 17/22/20 22/29/20 23/30/20
f 16/25/21 15/24/21 20/31/21 21/32/21
f 19/21/22 18/23/22 23/30/22 24/28/22
f 17/22/23 16/25/23 21/32/23 22/29/23
f 15/24/24 30/33/24 20/31/24
f 41/34/25 24/28/25 29/35/25
f 23/30/26 22/29/26 27/36/26 28/37/26
f 21/32/27 20/31/27 25/38/27 26/39/27
f 24/28/28 23/30/28 28/37/28 29/35/28
f 22/29/29 21/32/29 26/39/29 27/36/29
f 20/31/30 30/40/30 25/38/30
f 28/37/31 27/36/31 33/41/31 34/42/31
f 26/39/32 25/38/32 31/43/32 32/44/32
f 29/35/33 28/37/33 34/42/33 35/45/33
f 27/36/34 26/39/34 32/44/34 33/41/34
f 25/38/35 30/46/35 31/43/35
f 41/47/36 29/35/36 35/45/36
f 32/44/37 31/43/37 36/48/37 37/49/37
f 35/45/38 34/42/38 39/50/38 40/51/38
f 33/41/39 32/44/39 37/49/39 38/52/39
f 31/43/40 30/53/40 36/48/40
f 41/54/41 35/45/41 40/51/41
f 34/42/42 33/41/42 38/52/42 39/50/42
f 40/51/43 39/50/43 45/55/43 46/56/43
f 38/52/44 37/49/44 43/57/44 44/58/44
f 36/48/45 30/59/45 42/60/45
f 41/61/46 40/51/46 46/56/46
f 39/50/47 38/52/47 44/58/47 45/55/47
f 37/49/48 36/48/48 42/60/48 43/57/48
f 46/56/49 45/55/49 50/62/49 51/63/49
f 44/58/50 43/57/50 48/64/50 49/65/50
f 42/60/51 30/66/51 47/67/51
f 41/68/52 46/56/52 51/63/52
f 45/55/53 44/58/53 49/65/53 50/62/53
f 43/57/54 42/60/54 47/67/54 48/64/54
f 51/69/55 50/70/55 55/71/55 56/72/55
f 49/73/56 48/74/56 53/75/56 54/76/56
f 47/77/57 30/78/57 52/79/57
f 41/80/58 51/69/58 56/72/58
f 50/70/59 49/73/59 54/76/59 55/71/59
f 48/74/60 47/77/60 52/79/60 53/75/60
f 56/72/61 55/71/61 60/81/61 61/82/61
f 54/76/62 53/75/62 58/83/62 59/84/62
f 52/79/63 30/85/63 57/86/63
f 41/87/64 56/72/64 61/82/64
f 55/71/65 54/76/65 59/84/65 60/81/65
f 53/75/66 52/79/66 57/86/66 58/83/66
f 59/84/67 58/83/67 2/6/67 3/5/67
f 57/86/68 30/88/68 1/9/68
f 41/89/69 61/82/69 4/1/69
f 60/81/70 59/84/70 3/5/70 62/2/70
f 58/83/71 57/86/71 1/9/71 2/6/71
f 61/82/72 60/81/72 62/2/72 4/1/72
